<svg xmlns="http://www.w3.org/2000/svg" version="1.1" xmlns:xlink="http://www.w3.org/1999/xlink" xmlns:svgjs="http://svgjs.dev/svgjs" width="2000" height="2000" viewBox="0 0 2000 2000"><g transform="matrix(1,0,0,1,0,0)"><svg viewBox="0 0 280 280" data-background-color="#ffffff" preserveAspectRatio="xMidYMid meet" height="2000" width="2000" xmlns="http://www.w3.org/2000/svg" xmlns:xlink="http://www.w3.org/1999/xlink"><g id="tight-bounds" transform="matrix(1,0,0,1,0,0)"><svg viewBox="0 0 280 280" height="280" width="280"><g><svg viewBox="0 0 280 280" height="280" width="280"><g><svg viewBox="0 0 280 280" height="280" width="280"><g id="textblocktransform"><svg viewBox="0 0 280 280" height="280" width="280" id="textblock"><g><svg viewBox="0 0 280 280" height="280" width="280"><g transform="matrix(1,0,0,1,97.07897939088357,86.542727342297)"><svg viewBox="0 0 85.84204121823286 106.914545315406" height="106.914545315406" width="85.84204121823286"><g id="icon-0"><svg xmlns="http://www.w3.org/2000/svg" xmlns:xlink="http://www.w3.org/1999/xlink" xml:space="preserve" version="1.1" style="shape-rendering:geometricPrecision;text-rendering:geometricPrecision;image-rendering:optimizeQuality;" viewBox="9.721771171086521 0 80.27822882891348 99.98492827249302" x="0" y="0" fill-rule="evenodd" clip-rule="evenodd" height="106.914545315406" width="85.84204121823286" class="icon-xg-0" data-fill-palette-color="accent" id="xg-0"><g fill="#000000" data-fill-palette-color="accent"><path class="" d="M86 24c-3-7-17-7-27-17 0-4 0-7 0-7l-11 0 0 67c-5-2-11-2-18 0-13 3-22 13-20 22 3 9 15 13 29 10 11-3 20-12 20-20l0 0c0 0 0-51 0-55 24 0 24 24 27 24 3 0 4-7 4-14-1-3-2-7-4-10z" fill="#ffffff" fill-rule="nonzero" data-fill-palette-color="accent"></path></g></svg></g></svg></g><g id="text-0"><path d="M15.332 76.13l0.997-2.636 25.654 9.705-0.944 2.495-23.532-8.902-0.082 0.215 13.654 15.304-0.431 1.14-18.801 4.404-0.085 0.224 21.821 7.325-0.944 2.496-25.821-10.815 0.275-0.729 21.519-5.064 0.082-0.215z" fill="#ffffff" data-fill-palette-color="primary"></path><path d="M60.929 59.057l-7.712 9.285-21.099-17.524 7.635-9.193 1.476 1.226-5.071 4.698c-0.893 0.825-1.474 1.399-1.742 1.722v0l9.193 7.636c0.217-0.261 0.708-0.91 1.473-1.946v0l3.797-5.198 1.392 1.156-4.405 4.693c-0.883 0.938-1.433 1.538-1.65 1.799v0l10.1 8.389c0.302-0.364 0.768-1.05 1.399-2.06v0l3.739-5.909z" fill="#ffffff" data-fill-palette-color="primary"></path><path d="M74.72 48.14l-15.842-22.391 2.17-1.535 15.391 21.755c0.408-0.289 1.003-0.808 1.787-1.558v0l4.744-4.556 1.155 1.631z" fill="#ffffff" data-fill-palette-color="primary"></path><path d="M91.082 23.548v0c-0.617-1.915-0.848-3.807-0.695-5.676 0.145-1.873 0.638-3.624 1.479-5.252 0.834-1.626 1.965-3.047 3.392-4.264 1.434-1.218 3.109-2.135 5.024-2.752v0c1.915-0.617 3.81-0.849 5.685-0.697 1.875 0.152 3.626 0.644 5.253 1.478 1.626 0.834 3.048 1.968 4.266 3.402 1.216 1.428 2.132 3.099 2.749 5.014v0c0.617 1.915 0.849 3.81 0.698 5.686-0.152 1.875-0.644 3.626-1.479 5.252-0.834 1.626-1.968 3.048-3.402 4.267-1.434 1.218-3.109 2.135-5.024 2.752v0c-1.915 0.617-3.81 0.849-5.685 0.697-1.869-0.154-3.617-0.648-5.243-1.481-1.633-0.832-3.055-1.966-4.266-3.402-1.218-1.434-2.135-3.109-2.752-5.024zM93.916 22.635v0c0.817 2.536 1.979 4.611 3.486 6.226 1.507 1.614 3.239 2.69 5.197 3.228 1.958 0.538 4.005 0.463 6.141-0.225v0c2.137-0.688 3.843-1.822 5.119-3.402 1.276-1.58 2.052-3.471 2.33-5.674 0.286-2.199 0.023-4.556-0.788-7.074v0c-0.809-2.511-1.97-4.572-3.483-6.184-1.507-1.614-3.24-2.693-5.2-3.238-1.962-0.551-4.011-0.482-6.148 0.206v0c-2.137 0.688-3.837 1.82-5.1 3.396-1.265 1.569-2.045 3.451-2.338 5.646-0.294 2.194-0.032 4.559 0.784 7.095z" fill="#ffffff" data-fill-palette-color="primary"></path><path d="M147.265 27.81l-8.613-0.414 1.316-27.396 8.613 0.414c3.021 0.145 5.628 0.844 7.822 2.096 2.187 1.259 3.857 2.943 5.009 5.053 1.152 2.109 1.663 4.531 1.532 7.266v0c-0.132 2.741-0.872 5.107-2.222 7.095-1.349 1.989-3.173 3.502-5.469 4.539-2.304 1.043-4.967 1.492-7.988 1.347zM148.536 1.352v0l-5.958-0.286-1.226 25.52 5.958 0.286c3.779 0.182 6.787-0.798 9.024-2.938 2.231-2.147 3.442-5.23 3.636-9.248v0c0.193-4.012-0.718-7.194-2.733-9.545-2.021-2.345-4.922-3.608-8.701-3.789z" fill="#ffffff" data-fill-palette-color="primary"></path><path d="M181.449 34.781l-2.523-0.838 8.645-26.03 2.522 0.837z" fill="#ffffff" data-fill-palette-color="primary"></path><path d="M232.821 34.785l2.294 1.635-15.924 22.332-2.173-1.549 14.608-20.485-0.187-0.133-18.279 9.301-0.992-0.708 0.535-19.303-0.195-0.139-12.647 19.232-2.172-1.549 17.041-22.21 0.635 0.452-0.591 22.099 0.187 0.133z" fill="#ffffff" data-fill-palette-color="primary"></path><path d="M232.758 75.81l-1.622-2.105 21.723-16.746 1.622 2.105z" fill="#ffffff" data-fill-palette-color="primary"></path><path d="M241.493 92.114l-1.145-2.922 16.426 4.424 9.4-13.696 1.144 2.921-7.8 11.342 0.087 0.223 13.058 2.073 1.145 2.922-14.995-4.223-10.258 14.956-1.141-2.912 8.655-12.611-0.087-0.223z" fill="#ffffff" data-fill-palette-color="primary"></path><path d="M40.985 194.165l0.997 2.635-25.654 9.705-0.944-2.495 23.533-8.902-0.082-0.215-20.364-2.435-0.431-1.14 11.179-15.746-0.085-0.224-21.206 8.952-0.944-2.495 26.514-8.984 0.276 0.729-12.779 18.039 0.081 0.215z" fill="#ffffff" data-fill-palette-color="primary"></path><path d="M39.829 238.467l-7.712-9.285 21.1-17.525 7.635 9.193-1.476 1.226-3.688-5.848c-0.647-1.03-1.105-1.706-1.373-2.028v0l-9.193 7.635c0.217 0.261 0.764 0.863 1.642 1.806v0l4.413 4.687-1.391 1.155-3.806-5.191c-0.76-1.04-1.248-1.691-1.465-1.952v0l-10.1 8.388c0.302 0.364 0.891 0.948 1.768 1.753v0l5.122 4.76z" fill="#ffffff" data-fill-palette-color="primary"></path><path d="M58.878 254.25l15.841-22.39 2.17 1.535-15.391 21.754c0.408 0.289 1.096 0.677 2.063 1.166v0l5.876 2.958-1.154 1.631z" fill="#ffffff" data-fill-palette-color="primary"></path><path d="M91.085 256.442v0c0.617-1.915 1.533-3.586 2.748-5.014 1.212-1.436 2.634-2.57 4.267-3.402 1.626-0.834 3.374-1.328 5.243-1.481 1.875-0.152 3.771 0.081 5.685 0.697v0c1.915 0.617 3.589 1.534 5.024 2.752 1.434 1.218 2.568 2.64 3.402 4.266 0.834 1.626 1.327 3.377 1.478 5.253 0.154 1.869-0.078 3.761-0.694 5.676v0c-0.617 1.915-1.534 3.589-2.752 5.024-1.218 1.434-2.64 2.568-4.266 3.402-1.626 0.834-3.377 1.327-5.253 1.478-1.875 0.152-3.771-0.081-5.685-0.697v0c-1.915-0.617-3.589-1.534-5.024-2.752-1.428-1.216-2.559-2.637-3.393-4.264-0.84-1.628-1.333-3.379-1.478-5.252-0.152-1.875 0.081-3.771 0.698-5.686zM93.919 257.355v0c-0.817 2.536-1.085 4.899-0.804 7.09 0.281 2.19 1.06 4.075 2.336 5.655 1.276 1.58 2.982 2.714 5.119 3.401v0c2.137 0.688 4.184 0.763 6.142 0.226 1.958-0.538 3.692-1.621 5.203-3.248 1.515-1.618 2.678-3.686 3.489-6.203v0c0.809-2.511 1.069-4.862 0.781-7.054-0.281-2.19-1.059-4.078-2.332-5.665-1.272-1.592-2.976-2.733-5.113-3.421v0c-2.137-0.688-4.178-0.761-6.123-0.219-1.943 0.536-3.674 1.609-5.194 3.219-1.519 1.61-2.688 3.683-3.504 6.219z" fill="#ffffff" data-fill-palette-color="primary"></path><path d="M148.581 279.586l-8.613 0.414-1.316-27.396 8.613-0.414c3.021-0.145 5.683 0.301 7.987 1.337 2.298 1.043 4.121 2.56 5.47 4.549 1.349 1.989 2.09 4.351 2.222 7.085v0c0.132 2.741-0.379 5.167-1.532 7.277-1.152 2.109-2.822 3.79-5.009 5.042-2.194 1.259-4.801 1.961-7.822 2.106zM147.31 253.128v0l-5.958 0.286 1.226 25.52 5.958-0.286c3.779-0.182 6.68-1.445 8.701-3.789 2.014-2.351 2.925-5.536 2.732-9.555v0c-0.193-4.012-1.404-7.092-3.635-9.238-2.237-2.14-5.245-3.119-9.024-2.938z" fill="#ffffff" data-fill-palette-color="primary"></path><path d="M190.094 271.249l-2.523 0.838-8.644-26.03 2.522-0.838z" fill="#ffffff" data-fill-palette-color="primary"></path><path d="M216.897 222.884l2.294-1.636 15.925 22.331-2.172 1.549-14.608-20.484-0.187 0.133 2.838 20.312-0.993 0.708-18.075-6.796-0.195 0.14 14.062 18.222-2.172 1.549-15.446-23.347 0.634-0.453 20.701 7.758 0.187-0.133z" fill="#ffffff" data-fill-palette-color="primary"></path><path d="M254.482 220.935l-1.622 2.105-21.723-16.745 1.622-2.105z" fill="#ffffff" data-fill-palette-color="primary"></path><path d="M267.031 197.893l-1.145 2.921-9.046-14.405-16.203 3.663 1.145-2.921 13.43-3.022 0.087-0.224-8.172-10.393 1.145-2.921 8.133 13.286 17.688-4.004-1.141 2.912-14.919 3.372-0.087 0.223z" fill="#ffffff" data-fill-palette-color="primary"></path><path d="M3.411 140c0-5.903 4.785-10.687 10.687-10.688 5.903 0 10.687 4.785 10.688 10.688 0 5.903-4.785 10.687-10.688 10.687-5.903 0-10.687-4.785-10.687-10.687z" fill="#ffffff" data-fill-palette-color="primary"></path><path d="M255.214 140c0-5.903 4.785-10.687 10.688-10.688 5.903 0 10.687 4.785 10.687 10.688 0 5.903-4.785 10.687-10.687 10.687-5.903 0-10.687-4.785-10.688-10.687z" fill="#ffffff" data-fill-palette-color="primary"></path></g><g id="text-1"></g></svg></g></svg></g></svg></g><g></g></svg></g><defs></defs></svg><rect width="280" height="280" fill="none" stroke="none" visibility="hidden"></rect></g></svg></g></svg>